HIERARCHY
ROOT pelvis
{
	OFFSET 0.000000 0.000000 0.000000
	CHANNELS 6 Xposition Yposition Zposition Zrotation Yrotation Xrotation
	JOINT left_hip
	{
		OFFSET 0.055779 -0.080629 -0.017705
		CHANNELS 3 Zrotation Yrotation Xrotation
		JOINT left_knee
		{
			OFFSET 0.039469 -0.359247 0.009008
			CHANNELS 3 Zrotation Yrotation Xrotation
			JOINT left_ankle
			{
				OFFSET -0.013809 -0.389899 -0.036404
				CHANNELS 3 Zrotation Yrotation Xrotation
				JOINT left_foot
				{
					OFFSET 0.037897 -0.056346 0.116500
					CHANNELS 3 Zrotation Yrotation Xrotation
					End Site
					{
						OFFSET 0.000000 0.000000 0.000000
					}
				}
			}
		}
	}
	JOINT right_hip
	{
		OFFSET -0.057787 -0.088871 -0.013401
		CHANNELS 3 Zrotation Yrotation Xrotation
		JOINT right_knee
		{
			OFFSET -0.039496 -0.356943 -0.002206
			CHANNELS 3 Zrotation Yrotation Xrotation
			JOINT right_ankle
			{
				OFFSET 0.017959 -0.383749 -0.033094
				CHANNELS 3 Zrotation Yrotation Xrotation
				JOINT right_foot
				{
					OFFSET -0.031235 -0.058281 0.124713
					CHANNELS 3 Zrotation Yrotation Xrotation
					End Site
					{
						OFFSET 0.000000 0.000000 0.000000
					}
				}
			}
		}
	}
	JOINT spine1
	{
		OFFSET 0.004196 0.122659 -0.034271
		CHANNELS 3 Zrotation Yrotation Xrotation
		JOINT spine2
		{
			OFFSET 0.005122 0.143143 0.029537
			CHANNELS 3 Zrotation Yrotation Xrotation
			JOINT spine3
			{
				OFFSET -0.001923 0.057757 0.004628
				CHANNELS 3 Zrotation Yrotation Xrotation
				JOINT neck
				{
					OFFSET -0.013781 0.203940 -0.035143
					CHANNELS 3 Zrotation Yrotation Xrotation
					JOINT head
					{
						OFFSET 0.009065 0.086539 0.049216
						CHANNELS 3 Zrotation Yrotation Xrotation
						End Site
						{
							OFFSET 0.000000 0.000000 0.000000
						}
					}
				}
				JOINT left_collar
				{
					OFFSET 0.070315 0.109742 -0.020357
					CHANNELS 3 Zrotation Yrotation Xrotation
					JOINT left_shoulder
					{
						OFFSET 0.122280 0.043464 -0.020451
						CHANNELS 3 Zrotation Yrotation Xrotation
						JOINT left_elbow
						{
							OFFSET 0.245347 -0.013316 -0.020298
							CHANNELS 3 Zrotation Yrotation Xrotation
							JOINT left_wrist
							{
								OFFSET 0.251466 0.010925 -0.008411
								CHANNELS 3 Zrotation Yrotation Xrotation
								End Site
								{
									OFFSET 0.000000 0.000000 0.000000
								}
							}
						}
					}
				}
				JOINT right_collar
				{
					OFFSET -0.083386 0.108780 -0.024575
					CHANNELS 3 Zrotation Yrotation Xrotation
					JOINT right_shoulder
					{
						OFFSET -0.112806 0.044731 -0.008805
						CHANNELS 3 Zrotation Yrotation Xrotation
						JOINT right_elbow
						{
							OFFSET -0.248827 -0.010357 -0.028458
							CHANNELS 3 Zrotation Yrotation Xrotation
							JOINT right_wrist
							{
								OFFSET -0.255561 0.006434 -0.006231
								CHANNELS 3 Zrotation Yrotation Xrotation
								End Site
								{
									OFFSET 0.000000 0.000000 0.000000
								}
							}
						}
					}
				}
			}
		}
	}
}
MOTION
Frames: 5
Frame Time: 0.033333
-0.292095 0.441971 1.746194 -142.754000 80.740400 -135.851000 26.587034 30.883358 -77.996223 -1.441500 -0.903023 101.571397 -1.443957 0.271640 -25.417706 0.000000 0.000000 0.000000 -20.663487 -33.791120 -60.517282 2.571780 0.569889 100.183635 -0.750465 -11.253021 -25.775839 0.000000 0.000000 0.000000 8.020205 15.381452 19.383058 0.000000 0.000000 0.000000 -6.117865 3.873512 -14.176860 3.777804 12.842773 14.416145 -11.055511 24.006714 -23.656958 0.000000 0.000000 0.000000 -58.978190 -19.576672 8.887790 119.821938 -45.659391 -92.097666 -1.720277 4.966278 -38.191720 0.000000 0.000000 0.000000 61.181842 39.689082 78.118757 -115.064861 47.576257 -88.178823 0.065675 1.026272 7.323021
-0.294147 0.448445 1.743345 -140.022000 80.269200 -132.702000 26.618181 30.266981 -78.063443 -1.457020 -0.899262 101.054236 -1.347528 0.673802 -25.184063 0.000000 0.000000 0.000000 -19.725623 -33.083493 -60.217243 2.528905 0.618158 98.678380 -0.767481 -11.468152 -25.141889 0.000000 0.000000 0.000000 8.700580 15.010798 19.813047 0.000000 0.000000 0.000000 -6.074623 3.815574 -14.251255 3.697701 12.931281 14.412924 -11.466210 24.041000 -24.466212 0.000000 0.000000 0.000000 -59.067009 -20.106994 8.914077 119.418563 -45.836507 -91.768280 -1.717949 4.963337 -38.164857 0.000000 0.000000 0.000000 60.450682 39.505654 77.361398 -114.338799 47.837233 -87.574510 0.062377 1.000272 7.136503
-0.296531 0.457199 1.738158 -138.437000 79.799600 -130.477000 26.188829 29.447795 -78.198667 -1.453546 -0.902634 100.324243 -1.275362 0.904902 -24.958026 0.000000 0.000000 0.000000 -18.971429 -32.377406 -59.721252 2.461491 0.682568 96.622373 -0.786238 -11.696623 -24.340171 0.000000 0.000000 0.000000 9.103669 14.666690 20.070879 0.000000 0.000000 0.000000 -6.004184 3.750629 -14.356005 3.544202 12.911386 14.410724 -11.508334 23.924809 -25.321898 0.000000 0.000000 0.000000 -59.058468 -20.850571 9.381785 119.170349 -45.944111 -91.565501 -1.807294 5.074526 -39.186128 0.000000 0.000000 0.000000 59.437103 39.279053 76.303035 -113.312353 48.193095 -86.717657 0.067622 1.041303 7.430904
-0.298467 0.468066 1.729913 -138.158000 79.296400 -129.545000 25.237275 28.406002 -78.340299 -1.457718 -0.904106 99.448534 -1.118661 1.604709 -24.785576 0.000000 0.000000 0.000000 -18.605545 -31.774575 -58.706110 2.350497 0.763198 93.976743 -0.745197 -11.542995 -23.374210 0.000000 0.000000 0.000000 9.349313 14.235345 20.362416 0.000000 0.000000 0.000000 -5.759128 3.672314 -14.508342 3.554516 12.857035 14.385133 -11.917504 23.653607 -26.229926 0.000000 0.000000 0.000000 -59.184540 -21.817922 10.198849 118.922346 -46.050588 -91.362423 -1.793766 5.057940 -39.032850 0.000000 0.000000 0.000000 58.167028 38.919897 74.970420 -112.278885 48.535723 -85.852065 0.069755 1.057530 7.547393
-0.300238 0.481547 1.718809 -138.378000 78.704800 -128.978000 23.878334 27.328896 -78.462391 -1.457999 -0.908167 98.312886 -0.890710 2.669514 -24.675363 0.000000 0.000000 0.000000 -18.340732 -31.238390 -57.245280 2.220668 0.850800 90.628745 -0.732487 -11.547883 -22.088189 0.000000 0.000000 0.000000 9.576045 13.789306 20.399295 0.000000 0.000000 0.000000 -5.511520 3.588683 -14.567094 3.707299 12.827978 14.288516 -12.415764 23.409513 -27.056372 0.000000 0.000000 0.000000 -59.535220 -23.013810 11.337706 118.284421 -46.319530 -90.839274 -1.664902 4.895326 -37.547474 0.000000 0.000000 0.000000 56.813225 38.305668 73.484260 -111.432696 48.805243 -85.141339 0.065747 1.026828 7.326983
